# xmcd CD database file
#
# Track frame offsets:
#	150
#	10939
#	21856
#	34551
#	45930
#	56749
#	67832
#	79660
#	92126
#	102079
#	113593
#	124836
#	134620
#	150073
#	160449
#	174106
#	186794
#	199062
#	211533
#	222946
#
# Disc length: 3122 seconds
#
# Revision: 1
# Processed by: cddbd v1.5.2PL0 Copyright (c) Steve Scherf et al.
# Submitted via: CDex 1.70beta2
#
DISCID=f50c3014
DTITLE=Various Artist - Best Swing Jazz 100 (Disc3)
DYEAR=2009
DGENRE=Jazz
TTITLE0=Boo Hoo
TTITLE1=Harbor Lights
TTITLE2=The Third Man Theme
TTITLE3=Humoresque
TTITLE4=Red Roses For A Blue Lady
TTITLE5=Red Sails In The Sunset
TTITLE6=Isle Of Capri
TTITLE7=Autumn Leaves
TTITLE8=It’s A Sin To Tell A Lie
TTITLE9=Now Is The Hour
TTITLE10=Canadian Sunset
TTITLE11=Auld Lang Syne
TTITLE12=Tonight We Love
TTITLE13=Miami Beach Rhumba
TTITLE14=Cumana
TTITLE15=Bumble Boogie
TTITLE16=Grieg Piano Concerto In A Minor
TTITLE17=Managua，Nicaragua
TTITLE18=The Man With The Horn
TTITLE19=Mr．Anthony Boogie
EXTD=YEAR: 2009
EXTT0=
EXTT1=
EXTT2=
EXTT3=
EXTT4=
EXTT5=
EXTT6=
EXTT7=
EXTT8=
EXTT9=
EXTT10=
EXTT11=
EXTT12=
EXTT13=
EXTT14=
EXTT15=
EXTT16=
EXTT17=
EXTT18=
EXTT19=
PLAYORDER=
